<?xml version="1.0" standalone="no"?>
<!DOCTYPE svg PUBLIC "-//W3C//DTD SVG 20010904//EN"
 "http://www.w3.org/TR/2001/REC-SVG-20010904/DTD/svg10.dtd">
<svg version="1.0" xmlns="http://www.w3.org/2000/svg"
 width="1156.000000pt" height="1156.000000pt" viewBox="0 0 1156.000000 1156.000000"
 preserveAspectRatio="xMidYMid meet">
<metadata>
Created by potrace 1.11, written by Peter Selinger 2001-2013
</metadata>
<g transform="translate(0.000000,1156.000000) scale(0.100000,-0.100000)"
fill="#000000" stroke="none">
<path d="M6310 9446 l0 -1874 1874 0 1873 -1 -2 962 c-1 854 -4 974 -19 1067
-60 370 -194 677 -423 967 -57 72 -199 216 -283 288 -214 181 -493 325 -769
396 -64 17 -127 32 -141 34 -65 9 -108 16 -130 22 -14 4 -465 8 -1002 10
l-978 4 0 -1875z"/>
<path d="M2450 11303 c-51 -8 -146 -47 -197 -80 -113 -75 -189 -189 -218 -331
-5 -24 -10 -3192 -6 -3313 1 -14 170 -16 1874 -15 l1872 1 0 1873 0 1872
-1650 -1 c-907 -1 -1661 -4 -1675 -6z"/>
<path d="M1959 6981 c-5 -91 0 -3268 5 -3304 21 -151 131 -302 269 -370 121
-59 17 -55 1817 -56 l1655 -1 -1 1867 c-1 1028 -2 1871 -3 1874 0 3 -842 6
-1871 6 -1700 0 -1870 -2 -1871 -16z"/>
<path d="M9721 2418 c-56 -38 -76 -73 -75 -131 1 -69 20 -106 69 -134 73 -41
173 -24 218 39 28 38 33 123 10 167 -27 52 -64 74 -130 79 -48 3 -64 0 -92
-20z"/>
<path d="M241 1972 c-21 -10 -43 -33 -55 -57 -20 -39 -21 -57 -24 -550 -2
-364 0 -522 9 -552 22 -81 91 -123 177 -109 45 7 81 33 107 77 18 31 20 54 22
259 2 289 11 426 34 500 50 167 140 209 324 152 74 -22 116 -15 158 26 39 40
48 112 18 159 -58 92 -278 144 -385 91 -52 -27 -60 -34 -112 -102 -24 -32 -44
-57 -45 -55 0 2 -3 19 -6 38 -7 53 -40 109 -73 126 -39 20 -107 19 -149 -3z"/>
<path d="M1522 1969 c-279 -71 -434 -290 -436 -614 -1 -148 15 -225 67 -335
74 -156 218 -267 392 -303 90 -19 262 -19 349 -1 181 38 333 157 371 292 17
59 -21 116 -84 127 -51 8 -86 -7 -146 -66 -118 -114 -199 -154 -316 -154 -99
0 -175 36 -231 110 -41 53 -78 155 -78 211 l0 34 348 1 c191 0 361 3 377 5 52
8 110 42 130 76 14 25 19 52 19 108 0 242 -164 447 -407 509 -99 26 -256 26
-355 0z m291 -227 c26 -12 53 -27 60 -34 54 -56 91 -134 101 -217 l5 -41 -286
0 -286 0 7 43 c22 137 98 236 206 267 46 14 143 4 193 -18z"/>
<path d="M2613 1970 c-70 -42 -68 -25 -68 -620 0 -517 1 -536 20 -569 34 -57
68 -76 138 -76 73 0 106 19 136 80 17 36 19 64 21 290 1 311 6 413 20 466 35
128 150 213 278 205 91 -5 135 -35 164 -111 25 -65 30 -133 32 -481 1 -299 3
-332 20 -367 53 -106 207 -117 268 -18 23 36 23 39 25 451 3 440 0 479 -47
570 -78 153 -271 229 -481 190 -80 -15 -166 -62 -236 -128 l-63 -60 0 42 c0
120 -128 197 -227 136z"/>
<path d="M4439 1986 c-2 -2 -17 -6 -34 -9 -105 -17 -219 -72 -288 -140 -139
-136 -197 -295 -193 -527 5 -195 54 -327 166 -441 82 -84 176 -133 300 -157
19 -4 89 -7 155 -7 132 0 199 9 260 35 189 78 291 186 311 330 6 45 -30 118
-71 141 -71 41 -132 16 -195 -78 -101 -154 -166 -198 -295 -198 -64 0 -89 5
-125 24 -124 63 -179 170 -185 356 -5 180 36 296 135 374 82 65 207 78 299 32
45 -24 111 -88 148 -145 41 -64 78 -89 132 -90 55 -1 93 20 121 67 76 124 -75
324 -307 404 -66 22 -98 27 -204 30 -69 1 -128 1 -130 -1z"/>
<path d="M5739 1975 c-88 -18 -207 -73 -261 -123 -74 -69 -116 -185 -89 -249
24 -57 103 -87 178 -67 12 3 44 38 72 78 85 123 151 156 306 152 132 -3 171
-27 203 -120 23 -67 23 -118 2 -122 -8 -1 -58 -14 -110 -27 -78 -21 -225 -53
-325 -73 -259 -50 -377 -154 -389 -343 -6 -106 31 -201 108 -275 158 -151 475
-138 708 29 l47 34 23 -32 c39 -56 99 -115 129 -127 65 -28 162 14 189 81 12
29 11 43 -9 118 -12 47 -25 95 -28 106 -4 11 -7 135 -8 275 -1 140 -5 284 -9
320 -24 220 -117 325 -329 365 -90 17 -319 17 -408 0z m428 -732 c-3 -54 -8
-107 -12 -118 -35 -100 -79 -149 -170 -192 -81 -37 -190 -39 -250 -5 -82 46
-113 141 -73 221 11 23 24 41 28 41 5 0 15 6 22 13 25 24 112 52 228 73 43 8
214 54 219 59 12 12 13 -2 8 -92z"/>
<path d="M6863 1970 c-70 -42 -68 -25 -68 -615 0 -510 1 -531 20 -569 31 -61
65 -81 139 -81 51 0 67 4 93 25 58 46 62 74 64 409 0 163 5 323 11 356 25 162
148 265 297 250 111 -11 156 -64 177 -208 3 -26 7 -197 8 -380 2 -351 4 -362
51 -414 40 -43 120 -56 178 -28 18 8 43 32 57 52 l25 37 2 405 c1 223 -2 430
-7 459 -34 203 -198 326 -425 321 -140 -3 -236 -44 -336 -141 -32 -32 -58 -55
-57 -51 6 24 -15 115 -33 137 -45 57 -135 74 -196 36z"/>
<path d="M8565 1970 c-115 -26 -190 -64 -257 -132 -93 -94 -115 -212 -52 -275
36 -37 142 -45 173 -14 10 10 37 46 60 79 74 109 142 141 296 138 149 -3 201
-48 221 -192 5 -43 5 -43 -33 -53 -98 -26 -286 -71 -358 -85 -44 -9 -91 -19
-105 -22 -14 -3 -34 -7 -46 -9 -184 -39 -308 -187 -298 -358 8 -147 80 -249
221 -314 53 -25 68 -27 188 -27 101 -1 142 3 185 18 73 25 165 71 221 111 l46
33 49 -61 c69 -86 107 -110 166 -104 85 7 147 79 133 153 -3 16 -16 69 -29
117 -23 83 -25 102 -24 340 1 260 -4 329 -27 408 -41 142 -122 212 -291 249
-116 25 -326 25 -439 0z m442 -727 c-9 -139 -27 -191 -89 -250 -79 -76 -237
-113 -322 -74 -70 31 -114 92 -111 151 1 14 3 35 3 47 3 31 58 91 99 108 19 8
104 31 189 50 85 20 172 43 192 50 20 7 39 14 41 14 2 1 1 -43 -2 -96z"/>
<path d="M9722 1973 c-21 -11 -40 -33 -56 -64 l-23 -48 1 -523 c1 -508 2 -524
22 -558 71 -122 244 -101 284 35 17 61 10 1061 -8 1096 -8 14 -32 38 -55 52
-48 32 -113 35 -165 10z"/>
<path d="M10353 1970 c-70 -42 -68 -25 -68 -620 0 -522 1 -536 21 -570 70
-120 247 -101 283 30 6 19 11 163 12 320 2 324 9 403 41 467 49 98 159 161
264 149 90 -10 128 -37 158 -114 24 -62 27 -118 29 -482 2 -307 3 -327 23
-364 29 -56 63 -79 126 -83 69 -5 114 19 145 77 23 43 23 46 22 449 0 246 -4
425 -11 452 -45 193 -197 309 -404 309 -143 0 -256 -44 -351 -139 l-59 -58 -3
41 c-7 123 -129 197 -228 136z"/>
</g>
</svg>
